<svg width="70" height="70" viewBox="0 0 70 70" fill="none" xmlns="http://www.w3.org/2000/svg">
<g clip-path="url(#clip0_1_68)">
<path d="M48.125 35C52.15 35 55.3875 31.7334 55.3875 27.7084C55.3875 23.6834 52.15 20.4167 48.125 20.4167C44.1 20.4167 40.8334 23.6834 40.8334 27.7084C40.8334 31.7334 44.1 35 48.125 35ZM26.25 32.0834C31.0917 32.0834 34.9709 28.175 34.9709 23.3334C34.9709 18.4917 31.0917 14.5834 26.25 14.5834C21.4084 14.5834 17.5 18.4917 17.5 23.3334C17.5 28.175 21.4084 32.0834 26.25 32.0834ZM48.125 40.8334C42.7875 40.8334 32.0834 43.5167 32.0834 48.8542V55.4167H64.1667V48.8542C64.1667 43.5167 53.4625 40.8334 48.125 40.8334ZM26.25 37.9167C19.4542 37.9167 5.83337 41.3292 5.83337 48.125V55.4167H26.25V48.8542C26.25 46.375 27.2125 42.0292 33.1625 38.7334C30.625 38.2084 28.175 37.9167 26.25 37.9167Z" fill="#9A9A9A"/>
</g>
<defs>
<clipPath id="clip0_1_68">
<rect width="70" height="70" fill="white"/>
</clipPath>
</defs>
</svg>
